<svg width="420" height="322" viewBox="0 0 420 322" fill="none" xmlns="http://www.w3.org/2000/svg">
<path d="M163 0L165.756 74.4535C167.443 120.004 203.953 156.534 249.455 158.199L326 161L249.455 163.801C203.953 165.466 167.443 201.996 165.756 247.546L163 322L160.244 247.547C158.557 201.996 122.047 165.466 76.5452 163.801L0 161L76.5451 158.199C122.047 156.534 158.557 120.004 160.244 74.4535L163 0Z" fill="#8D65FE"/>
<path d="M280 0L280.778 20.81C281.254 33.5415 291.557 43.7518 304.398 44.2172L326 45L304.398 45.7828C291.557 46.2482 281.254 56.4585 280.778 69.19L280 90L279.222 69.19C278.746 56.4585 268.443 46.2482 255.602 45.7828L234 45L255.602 44.2172C268.443 43.7518 278.746 33.5415 279.222 20.81L280 0Z" fill="#8D65FE"/>
<path d="M341.5 168L342.827 203.608C343.64 225.393 361.223 242.864 383.136 243.661L420 245L383.136 246.339C361.223 247.136 343.64 264.607 342.827 286.392L341.5 322L340.173 286.392C339.36 264.607 321.777 247.136 299.864 246.339L263 245L299.864 243.661C321.777 242.864 339.36 225.393 340.173 203.608L341.5 168Z" fill="#8D65FE"/>
</svg>
