<svg id="Layer_1" data-name="Layer 1" xmlns="http://www.w3.org/2000/svg" viewBox="0 0 500 500"><defs><style>.cls-1{fill:#fff;}</style></defs><path d="M489.81,305a13.74,13.74,0,0,1-13.76,13.75H25.62A13.76,13.76,0,0,1,11.84,305V195.36a13.78,13.78,0,0,1,13.78-13.77H476.05a13.77,13.77,0,0,1,13.76,13.77V305Z"/><path class="cls-1" d="M116.8,249.42c-.1-11.57,9.47-17.2,9.91-17.46a21.32,21.32,0,0,0-16.78-9.08c-7.07-.74-13.91,4.23-17.51,4.23s-9.21-4.15-15.18-4a22.36,22.36,0,0,0-18.81,11.47c-8.13,14.09-2.07,34.78,5.72,46.17,3.9,5.57,8.46,11.8,14.42,11.58s8-3.72,15.05-3.72,9,3.72,15.11,3.58c6.26-.11,10.2-5.6,14-11.23a45.83,45.83,0,0,0,6.39-13A20.11,20.11,0,0,1,116.8,249.42Z"/><path class="cls-1" d="M105.31,215.4c3.14-3.93,5.29-9.26,4.69-14.68-4.54.2-10.22,3.14-13.49,7-2.89,3.38-5.48,8.92-4.81,14.13C96.8,222.21,102,219.26,105.31,215.4Z"/><path class="cls-1" d="M201.23,291.5h-8.15l-4.47-14H173.09l-4.26,14H160.9l15.38-47.78h9.49Zm-14-19.92-4-12.48c-.42-1.27-1.23-4.27-2.41-9h-.14c-.47,2-1.23,5-2.27,9l-4,12.48Z"/><path class="cls-1" d="M240.78,273.85q0,8.79-4.75,13.89a13.92,13.92,0,0,1-10.56,4.54q-6.81,0-9.78-4.9h-.15v18.15h-7.65V268.39c0-3.68-.1-7.46-.28-11.34h6.73l.42,5.46h.15q3.83-6.17,11.62-6.17a12.8,12.8,0,0,1,10.17,4.82C239.42,264.38,240.78,268.6,240.78,273.85Zm-7.8.28a14.2,14.2,0,0,0-2.27-8.29,7.82,7.82,0,0,0-6.66-3.41,8,8,0,0,0-5.14,1.88,8.71,8.71,0,0,0-3,4.93,10,10,0,0,0-.36,2.34v5.74a9.2,9.2,0,0,0,2.31,6.35,7.64,7.64,0,0,0,6,2.58,7.84,7.84,0,0,0,6.73-3.33A14.64,14.64,0,0,0,233,274.13Z"/><path class="cls-1" d="M280.4,273.85q0,8.79-4.75,13.89a13.92,13.92,0,0,1-10.56,4.54q-6.81,0-9.78-4.9h-.14v18.15h-7.66V268.39q0-5.52-.28-11.34H254l.43,5.46h.14q3.82-6.17,11.62-6.17a12.82,12.82,0,0,1,10.18,4.82C279,264.38,280.4,268.6,280.4,273.85Zm-7.8.28a14.13,14.13,0,0,0-2.27-8.29,7.82,7.82,0,0,0-6.66-3.41,8,8,0,0,0-5.14,1.88,8.76,8.76,0,0,0-3,4.93,10.42,10.42,0,0,0-.35,2.34v5.74a9.23,9.23,0,0,0,2.29,6.35,7.68,7.68,0,0,0,6,2.58,7.83,7.83,0,0,0,6.73-3.33A14.64,14.64,0,0,0,272.6,274.13Z"/><path class="cls-1" d="M324.7,278.1a12.73,12.73,0,0,1-4.24,9.92c-3.12,2.79-7.45,4.19-13,4.19q-7.71,0-12.38-3l1.78-6.38a21,21,0,0,0,11.06,3,10.46,10.46,0,0,0,6.74-1.95,6.39,6.39,0,0,0,2.4-5.22,6.67,6.67,0,0,0-2-4.9,18.44,18.44,0,0,0-6.59-3.7q-12.56-4.68-12.55-13.7a12.14,12.14,0,0,1,4.4-9.65Q304.7,243,312,243a23.24,23.24,0,0,1,10.84,2.27l-1.92,6.24a18.84,18.84,0,0,0-9.14-2.2,9.24,9.24,0,0,0-6.31,2,5.68,5.68,0,0,0-1.91,4.32,5.83,5.83,0,0,0,2.2,4.68,24.77,24.77,0,0,0,6.94,3.69q6.16,2.47,9.08,5.81A12.2,12.2,0,0,1,324.7,278.1Z"/><path class="cls-1" d="M350,262.79h-8.43v16.73q0,6.38,4.47,6.38a13.5,13.5,0,0,0,3.4-.36l.21,5.82a17.44,17.44,0,0,1-6,.85,9.17,9.17,0,0,1-7.08-2.77c-1.7-1.84-2.56-4.94-2.56-9.28V262.79h-5v-5.74h5v-6.31l7.52-2.27v8.58H350Z"/><path class="cls-1" d="M388.07,274q0,7.93-4.54,13-4.74,5.25-12.62,5.25-7.57,0-12.08-5a18.3,18.3,0,0,1-4.5-12.68q0-8,4.64-13.11c3.09-3.41,7.27-5.11,12.51-5.11a15.72,15.72,0,0,1,12.19,5Q388.08,266.27,388.07,274Zm-7.94.25a15.48,15.48,0,0,0-2.06-8.18,7.55,7.55,0,0,0-6.87-4.12,7.67,7.67,0,0,0-7,4.12,15.87,15.87,0,0,0-2.05,8.32,15.51,15.51,0,0,0,2.05,8.17,7.74,7.74,0,0,0,6.95,4.13,7.65,7.65,0,0,0,6.87-4.2A15.48,15.48,0,0,0,380.13,274.24Z"/><path class="cls-1" d="M413,263.78a13.34,13.34,0,0,0-2.41-.21,7.23,7.23,0,0,0-6.24,3.05,11.41,11.41,0,0,0-1.92,6.8V291.5h-7.65l.07-23.6c0-4-.1-7.59-.29-10.85h6.67l.28,6.59h.21a11.89,11.89,0,0,1,3.83-5.46,9.27,9.27,0,0,1,5.53-1.84,12.35,12.35,0,0,1,1.92.14Z"/><path class="cls-1" d="M447.18,272.64a17.94,17.94,0,0,1-.28,3.47h-23c.09,3.41,1.19,6,3.33,7.8a11.32,11.32,0,0,0,7.51,2.41,25.35,25.35,0,0,0,9.29-1.63l1.19,5.32a28.71,28.71,0,0,1-11.54,2.13q-8,0-12.59-4.72t-4.57-12.65a19.72,19.72,0,0,1,4.26-13,14.65,14.65,0,0,1,12-5.53c5,0,8.72,1.84,11.28,5.53A18.64,18.64,0,0,1,447.18,272.64Zm-7.3-2a10.36,10.36,0,0,0-1.49-5.88,6.68,6.68,0,0,0-6.1-3.19,7.25,7.25,0,0,0-6.09,3.12,11.29,11.29,0,0,0-2.26,6Z"/><path class="cls-1" d="M184.73,214.33q0,6.34-3.8,9.54-3.51,3-10,3a45.53,45.53,0,0,1-5.5-.28V203.47a39.79,39.79,0,0,1,6.48-.49q6.17,0,9.3,2.68Q184.73,208.69,184.73,214.33Zm-4,.11a8.6,8.6,0,0,0-2.17-6.31c-1.46-1.46-3.57-2.19-6.36-2.19a16.3,16.3,0,0,0-3,.24v17.55a19.82,19.82,0,0,0,2.54.11,8.92,8.92,0,0,0,6.67-2.4Q180.77,219,180.76,214.44Z"/><path class="cls-1" d="M205.76,218a9.27,9.27,0,0,1-2.23,6.41,7.94,7.94,0,0,1-6.2,2.58,7.55,7.55,0,0,1-5.93-2.48,9,9,0,0,1-2.21-6.23,9.16,9.16,0,0,1,2.28-6.44,7.89,7.89,0,0,1,6.14-2.51,7.75,7.75,0,0,1,6,2.47A8.94,8.94,0,0,1,205.76,218Zm-3.9.12a7.65,7.65,0,0,0-1-4,3.71,3.71,0,0,0-3.37-2,3.76,3.76,0,0,0-3.45,2,7.72,7.72,0,0,0-1,4.08,7.57,7.57,0,0,0,1,4,3.84,3.84,0,0,0,6.79,0A7.71,7.71,0,0,0,201.86,218.14Z"/><path class="cls-1" d="M234,209.7l-5.3,16.92h-3.44l-2.2-7.34c-.55-1.84-1-3.66-1.36-5.47h-.06a40.86,40.86,0,0,1-1.36,5.47l-2.34,7.34h-3.48l-5-16.92h3.87l1.91,8c.46,1.91.85,3.72,1.15,5.44h.07q.42-2.13,1.39-5.4l2.41-8.08h3.06l2.3,7.9q.84,2.9,1.36,5.58h.1a55,55,0,0,1,1.15-5.58l2.06-7.9Z"/><path class="cls-1" d="M253.47,226.62h-3.76v-9.69q0-4.49-3.41-4.48a3.4,3.4,0,0,0-2.72,1.23,4.39,4.39,0,0,0-1,2.9v10h-3.77V214.54c0-1.49,0-3.1-.13-4.84h3.3l.18,2.64h.1a5.43,5.43,0,0,1,1.95-2,6.37,6.37,0,0,1,3.41-1,5.41,5.41,0,0,1,3.94,1.53,7.47,7.47,0,0,1,1.95,5.61Z"/><path class="cls-1" d="M263.85,226.62h-3.76V201.93h3.76Z"/><path class="cls-1" d="M286,218a9.32,9.32,0,0,1-2.23,6.41,8,8,0,0,1-6.2,2.58,7.56,7.56,0,0,1-5.94-2.48,9,9,0,0,1-2.21-6.23,9.2,9.2,0,0,1,2.28-6.44,7.9,7.9,0,0,1,6.14-2.51,7.79,7.79,0,0,1,6,2.47A9,9,0,0,1,286,218Zm-3.91.12a7.65,7.65,0,0,0-1-4,3.71,3.71,0,0,0-3.37-2,3.76,3.76,0,0,0-3.45,2,7.72,7.72,0,0,0-1,4.08,7.57,7.57,0,0,0,1,4,3.84,3.84,0,0,0,6.79,0A7.62,7.62,0,0,0,282.09,218.14Z"/><path class="cls-1" d="M304.2,226.62h-3.37l-.29-2h-.1A5.8,5.8,0,0,1,295.5,227a5.09,5.09,0,0,1-3.87-1.54,4.79,4.79,0,0,1-1.32-3.44,5.26,5.26,0,0,1,2.59-4.74,13.54,13.54,0,0,1,7.3-1.6v-.31q0-3.34-3.51-3.35a7.81,7.81,0,0,0-4.41,1.26l-.77-2.48a10.89,10.89,0,0,1,5.81-1.46q6.63,0,6.64,7v6.23A26.64,26.64,0,0,0,304.2,226.62Zm-3.9-5.81V218.2c-4.15-.07-6.23,1.06-6.23,3.41a2.52,2.52,0,0,0,.73,2,2.63,2.63,0,0,0,1.83.67,3.79,3.79,0,0,0,2.3-.79,3.18,3.18,0,0,0,1.37-2.66Z"/><path class="cls-1" d="M325.58,226.62h-3.33l-.18-2.71H322a5.62,5.62,0,0,1-5.43,3.1,6.33,6.33,0,0,1-5.08-2.41,9.33,9.33,0,0,1-2-6.23,9.82,9.82,0,0,1,2.19-6.65,6.76,6.76,0,0,1,5.23-2.37q3.4,0,4.76,2.3h.07v-9.72h3.77v20.13C325.45,223.71,325.49,225.23,325.58,226.62Zm-3.9-7.13v-2.83a5.45,5.45,0,0,0-.1-1.18,4.33,4.33,0,0,0-1.36-2.28,3.66,3.66,0,0,0-2.52-.92,3.86,3.86,0,0,0-3.31,1.67,7.15,7.15,0,0,0-1.2,4.28,6.73,6.73,0,0,0,1.15,4.08,3.9,3.9,0,0,0,3.29,1.67,3.62,3.62,0,0,0,3-1.4A4.59,4.59,0,0,0,321.68,219.49Z"/><path class="cls-1" d="M357.76,218a9.27,9.27,0,0,1-2.23,6.41,8,8,0,0,1-6.2,2.58,7.59,7.59,0,0,1-5.94-2.48,9,9,0,0,1-2.21-6.23,9.2,9.2,0,0,1,2.28-6.44,7.91,7.91,0,0,1,6.15-2.51,7.77,7.77,0,0,1,6,2.47A8.94,8.94,0,0,1,357.76,218Zm-3.9.12a7.65,7.65,0,0,0-1-4,3.72,3.72,0,0,0-3.38-2,3.78,3.78,0,0,0-3.45,2,7.81,7.81,0,0,0-1,4.08,7.67,7.67,0,0,0,1,4,3.85,3.85,0,0,0,6.8,0A7.71,7.71,0,0,0,353.86,218.14Z"/><path class="cls-1" d="M378,226.62h-3.76v-9.69q0-4.49-3.41-4.48a3.4,3.4,0,0,0-2.72,1.23,4.39,4.39,0,0,0-1,2.9v10h-3.77V214.54c0-1.49,0-3.1-.13-4.84h3.3l.18,2.64h.1a5.51,5.51,0,0,1,1.95-2,6.38,6.38,0,0,1,3.42-1,5.42,5.42,0,0,1,3.93,1.53,7.47,7.47,0,0,1,1.95,5.61Z"/><path class="cls-1" d="M403.31,212.52h-4.15v8.22c0,2.09.74,3.13,2.2,3.13a6.55,6.55,0,0,0,1.67-.17l.1,2.85a8.44,8.44,0,0,1-2.92.42,4.47,4.47,0,0,1-3.48-1.36c-.84-.9-1.25-2.42-1.25-4.56v-8.53H393V209.7h2.48v-3.1l3.68-1.11v4.21h4.15Z"/><path class="cls-1" d="M423.23,226.62h-3.77V217c0-3-1.13-4.55-3.41-4.55a3.6,3.6,0,0,0-3.59,2.64,4.8,4.8,0,0,0-.17,1.36v10.17h-3.76V201.93h3.76v10.2h.07a5.69,5.69,0,0,1,5.08-2.78,5.25,5.25,0,0,1,3.87,1.53,7.7,7.7,0,0,1,1.92,5.68Z"/><path class="cls-1" d="M443.77,217.36a9.21,9.21,0,0,1-.14,1.71H432.35A5,5,0,0,0,434,222.9a5.62,5.62,0,0,0,3.7,1.18,12.34,12.34,0,0,0,4.56-.8l.59,2.61a14.08,14.08,0,0,1-5.68,1.05,8.16,8.16,0,0,1-6.17-2.32,8.48,8.48,0,0,1-2.25-6.21,9.74,9.74,0,0,1,2.09-6.38,7.2,7.2,0,0,1,5.92-2.71,6.29,6.29,0,0,1,5.53,2.71A9.13,9.13,0,0,1,443.77,217.36Zm-3.59-1a5,5,0,0,0-.73-2.89,3.27,3.27,0,0,0-3-1.57,3.59,3.59,0,0,0-3,1.53,5.7,5.7,0,0,0-1.11,2.93Z"/></svg>