<?xml version="1.0" encoding="UTF-8" standalone="no"?><svg xmlns="http://www.w3.org/2000/svg" xmlns:xlink="http://www.w3.org/1999/xlink" fill="none" height="24" style="fill: none" viewBox="0 0 24 24" width="24"><path d="M6.34292 4.93938C6.73345 5.3299 6.73345 5.96307 6.34292 6.35359C3.21772 9.47879 3.21772 14.5457 6.34292 17.6709C6.73345 18.0615 6.73345 18.6946 6.34292 19.0852C5.9524 19.4757 5.31923 19.4757 4.92871 19.0852C1.02246 15.1789 1.02246 8.84563 4.92871 4.93938C5.31923 4.54885 5.9524 4.54885 6.34292 4.93938ZM19.0745 4.93938C22.9807 8.84563 22.9807 15.1789 19.0745 19.0852C18.684 19.4757 18.0508 19.4757 17.6603 19.0852C17.2698 18.6946 17.2698 18.0615 17.6603 17.6709C20.7855 14.5457 20.7855 9.47879 17.6603 6.35359C17.2698 5.96307 17.2698 5.3299 17.6603 4.93938C18.0508 4.54885 18.684 4.54885 19.0745 4.93938ZM9.30957 7.81275C9.7001 8.20328 9.7001 8.83644 9.30957 9.22697C7.77861 10.7579 7.77861 13.2401 9.30957 14.7711C9.7001 15.1616 9.7001 15.7948 9.30957 16.1853C8.91905 16.5758 8.28588 16.5758 7.89536 16.1853C5.58335 13.8733 5.58335 10.1248 7.89536 7.81275C8.28588 7.42223 8.91905 7.42223 9.30957 7.81275ZM16.2679 7.81275C18.5799 10.1248 18.5799 13.8733 16.2679 16.1853C15.8774 16.5758 15.2442 16.5758 14.8537 16.1853C14.4632 15.7948 14.4632 15.1616 14.8537 14.7711C16.3846 13.2401 16.3846 10.7579 14.8537 9.22697C14.4632 8.83644 14.4632 8.20328 14.8537 7.81275C15.2442 7.42223 15.8774 7.42223 16.2679 7.81275ZM12.0816 10.5822C12.9101 10.5822 13.5816 11.2537 13.5816 12.0822C13.5816 12.9106 12.9101 13.5822 12.0816 13.5822C11.2532 13.5822 10.5816 12.9106 10.5816 12.0822C10.5816 11.2537 11.2532 10.5822 12.0816 10.5822Z" fill="#6ab7ff"/></svg>