<svg width="180" height="54" viewBox="0 0 180 54" fill="none" xmlns="http://www.w3.org/2000/svg">
<g clip-path="url(#clip0_2513_3837)">
<path d="M173.33 53.332H6.67041C3.00381 53.332 0.00390625 50.3321 0.00390625 46.6655V6.6665C0.00390625 2.9999 3.00381 0 6.67041 0H173.33C176.997 0 179.997 2.9999 179.997 6.6665V46.6655C179.997 50.3321 176.997 53.332 173.33 53.332Z" fill="#100F0D"/>
<path d="M142.579 40.0008H145.067V23.3318H142.579V40.0008ZM164.988 29.3368L162.136 36.5632H162.051L159.091 29.3368H156.411L160.851 39.4368L158.319 45.0553H160.914L167.755 29.3373L164.988 29.3368ZM150.878 38.1074C150.065 38.1074 148.928 37.6995 148.928 36.6918C148.928 35.4053 150.344 34.9121 151.565 34.9121C152.658 34.9121 153.174 35.1475 153.838 35.4694C153.645 37.0136 152.316 38.1074 150.878 38.1074ZM151.18 28.9722C149.378 28.9722 147.513 29.7659 146.741 31.5243L148.949 32.4461C149.421 31.5243 150.3 31.2243 151.222 31.2243C152.509 31.2243 153.817 31.9956 153.838 33.3685V33.5398C153.387 33.2825 152.422 32.8967 151.244 32.8967C148.862 32.8967 146.44 34.2044 146.44 36.6491C146.44 38.8793 148.392 40.3162 150.578 40.3162C152.25 40.3162 153.174 39.5656 153.751 38.6861H153.838V39.9735H156.241V33.5825C156.241 30.6232 154.03 28.9722 151.18 28.9722ZM135.804 31.3659H132.265V25.6526H135.804C137.664 25.6526 138.719 27.1922 138.719 28.5092C138.719 29.8009 137.663 31.3659 135.804 31.3659ZM135.74 23.3322H129.778V40.0012H132.265V33.6863H135.74C138.497 33.6863 141.208 31.6905 141.208 28.5098C141.208 25.3297 138.497 23.3322 135.74 23.3322ZM103.233 38.1102C101.514 38.1102 100.075 36.6706 100.075 34.6952C100.075 32.6968 101.514 31.2369 103.233 31.2369C104.929 31.2369 106.261 32.6969 106.261 34.6952C106.261 36.6706 104.929 38.1102 103.233 38.1102ZM106.089 30.2699H106.003C105.445 29.6041 104.37 29.0027 103.018 29.0027C100.182 29.0027 97.5832 31.4948 97.5832 34.6952C97.5832 37.8738 100.182 40.344 103.018 40.344C104.37 40.344 105.445 39.7424 106.003 39.0555H106.089V39.871C106.089 42.0413 104.929 43.2006 103.061 43.2006C101.536 43.2006 100.591 42.1053 100.204 41.1818L98.0349 42.0839C98.6572 43.5869 100.311 45.4349 103.061 45.4349C105.983 45.4349 108.453 43.7161 108.453 39.5272V29.3462H106.089L106.089 30.2699ZM110.171 40.0003H112.662V23.3313H110.171V40.0003ZM116.335 34.5015C116.271 32.3104 118.033 31.1937 119.3 31.1937C120.288 31.1937 121.125 31.6879 121.406 32.3963L116.335 34.5015ZM124.068 32.6109C123.596 31.3443 122.157 29.0027 119.214 29.0027C116.292 29.0027 113.865 31.301 113.865 34.6734C113.865 37.8525 116.271 40.3441 119.493 40.3441C122.092 40.3441 123.596 38.7551 124.219 37.8311L122.286 36.5421C121.641 37.4874 120.761 38.1103 119.493 38.1103C118.226 38.1103 117.323 37.5301 116.744 36.3917L124.326 33.2558L124.068 32.6109ZM63.6591 30.7427V33.1484H69.4156C69.2437 34.5016 68.7926 35.4895 68.1052 36.177C67.2672 37.0144 65.9569 37.9384 63.659 37.9384C60.1147 37.9384 57.344 35.0817 57.344 31.5375C57.344 27.9933 60.1147 25.1362 63.659 25.1362C65.5708 25.1362 66.9667 25.8881 67.9978 26.8548L69.6952 25.1575C68.2556 23.783 66.3442 22.7305 63.659 22.7305C58.8038 22.7305 54.7227 26.6829 54.7227 31.5375C54.7227 36.3916 58.8038 40.3441 63.659 40.3441C66.2792 40.3441 68.2557 39.4847 69.802 37.8739C71.3916 36.2843 71.8858 34.0505 71.8858 32.2459C71.8858 31.688 71.8424 31.1725 71.7566 30.7427H63.6591ZM78.4311 38.1102C76.7123 38.1102 75.2301 36.6925 75.2301 34.6734C75.2301 32.6328 76.7123 31.237 78.4311 31.237C80.1492 31.237 81.6314 32.6328 81.6314 34.6734C81.6314 36.6925 80.1492 38.1102 78.4311 38.1102ZM78.4311 29.0027C75.2941 29.0027 72.7384 31.3869 72.7384 34.6734C72.7384 37.9384 75.2941 40.3441 78.4311 40.3441C81.5669 40.3441 84.1231 37.9384 84.1231 34.6734C84.1231 31.3869 81.5669 29.0027 78.4311 29.0027ZM90.8481 38.1102C89.1305 38.1102 87.6478 36.6925 87.6478 34.6734C87.6478 32.6328 89.1306 31.237 90.8481 31.237C92.5669 31.237 94.0486 32.6328 94.0486 34.6734C94.0486 36.6925 92.5669 38.1102 90.8481 38.1102ZM90.8481 29.0027C87.7123 29.0027 85.1566 31.3869 85.1566 34.6734C85.1566 37.9384 87.7123 40.3441 90.8481 40.3441C93.9851 40.3441 96.5408 37.9384 96.5408 34.6734C96.5408 31.3869 93.9851 29.0027 90.8481 29.0027Z" fill="white"/>
<path d="M27.6237 25.8986L13.4297 40.9646C13.4302 40.9677 13.4313 40.9703 13.4318 40.9735C13.8671 42.6095 15.3614 43.8141 17.1348 43.8141C17.8437 43.8141 18.5093 43.6225 19.0801 43.286L19.1254 43.2594L35.1034 34.0394L27.6237 25.8986Z" fill="#EB3131"/>
<path d="M41.9843 23.3325L41.9707 23.3232L35.0725 19.3242L27.3008 26.2398L35.0995 34.0375L41.9613 30.0783C43.1643 29.4289 43.981 28.1606 43.981 26.6981C43.981 25.2461 43.1754 23.9841 41.9843 23.3325Z" fill="#F6B60B"/>
<path d="M13.4271 12.3711C13.3417 12.6858 13.2969 13.0153 13.2969 13.3576V39.9806C13.2969 40.3222 13.3412 40.6529 13.4276 40.9665L28.1116 26.2855L13.4271 12.3711Z" fill="#5778C5"/>
<path d="M27.7258 26.6699L35.0731 19.3248L19.1131 10.0714C18.533 9.72397 17.8559 9.52344 17.1314 9.52344C15.358 9.52344 13.8617 10.7302 13.4263 12.3681C13.4258 12.3697 13.4258 12.3708 13.4258 12.3722L27.7258 26.6699Z" fill="#3BAD49"/>
<path d="M63.1949 13.0412H59.3054V14.0037H62.22C62.1408 14.7891 61.8283 15.4058 61.3012 15.8537C60.7742 16.3017 60.1012 16.5266 59.3054 16.5266C58.4325 16.5266 57.6929 16.2225 57.0868 15.6184C56.493 15.0017 56.191 14.2392 56.191 13.3205C56.191 12.4018 56.493 11.6393 57.0868 11.0227C57.6929 10.4185 58.4325 10.1164 59.3054 10.1164C59.7534 10.1164 60.1805 10.1935 60.572 10.3623C60.9637 10.5309 61.2783 10.7664 61.5241 11.0685L62.2637 10.3289C61.9283 9.94763 61.5033 9.65603 60.9761 9.44351C60.4491 9.23098 59.8991 9.12898 59.3053 9.12898C58.1408 9.12898 57.1534 9.5331 56.3471 10.3394C55.5409 11.1476 55.1367 12.1435 55.1367 13.3205C55.1367 14.4975 55.5408 15.4955 56.3471 16.3018C57.1534 17.1079 58.1408 17.5122 59.3053 17.5122C60.5282 17.5122 61.5032 17.1205 62.2532 16.3246C62.9136 15.6622 63.2511 14.7664 63.2511 13.6456C63.2511 13.456 63.2282 13.2537 63.1949 13.0412ZM64.7017 9.30797V17.3329H69.3869V16.3474H65.7329V13.8017H69.0287V12.8392H65.7329V10.2955H69.3869V9.30794L64.7017 9.30797ZM75.9567 10.2955V9.30797H70.4422V10.2955H72.6839V17.3328H73.7151V10.2955H75.9567ZM80.9492 9.30797H79.918V17.3329H80.9492V9.30797ZM87.7558 10.2955V9.30797H82.2414V10.2955H84.4829V17.3328H85.5141V10.2955H87.7558ZM98.1618 10.3518C97.366 9.53304 96.391 9.12891 95.2264 9.12891C94.0598 9.12891 93.0849 9.53303 92.289 10.3393C91.4932 11.1352 91.1016 12.133 91.1016 13.3204C91.1016 14.5078 91.4932 15.5058 92.289 16.3017C93.0849 17.1078 94.0598 17.5121 95.2264 17.5121C96.3805 17.5121 97.3659 17.1078 98.1618 16.3017C98.9577 15.5059 99.3492 14.5079 99.3492 13.3204C99.3492 12.1434 98.9576 11.1475 98.1618 10.3518ZM93.0286 11.0226C93.6223 10.4185 94.3515 10.1163 95.2264 10.1163C96.0993 10.1163 96.8285 10.4185 97.4118 11.0226C98.0055 11.6163 98.2971 12.3912 98.2971 13.3204C98.2971 14.2517 98.0055 15.0245 97.4118 15.6183C96.8285 16.2224 96.0993 16.5265 95.2264 16.5265C94.3515 16.5265 93.6223 16.2224 93.0286 15.6183C92.4473 15.012 92.1557 14.2517 92.1557 13.3204C92.1557 12.3912 92.4473 11.6288 93.0286 11.0226ZM101.799 12.3351L101.756 10.7871H101.799L105.878 17.3328H106.955V9.30789H105.924V14.0036L105.968 15.5516H105.924L102.024 9.30789H100.768V17.3328H101.799V12.3351Z" fill="white" stroke="white" stroke-width="0.26666" stroke-miterlimit="10"/>
</g>
<defs>
<clipPath id="clip0_2513_3837">
<rect width="180" height="53.333" fill="white"/>
</clipPath>
</defs>
</svg>
