<svg width="512" height="52" viewBox="0 0 512 512" fill="none" xmlns="http://www.w3.org/2000/svg">
<path d="M141.825 430.814L149.529 435.381C181.901 454.591 219.016 464.751 256.862 464.772H256.945C373.174 464.772 467.773 370.195 467.823 253.956C467.84 197.623 445.93 144.654 406.113 104.809C366.295 64.9651 313.354 43.0085 257.024 42.9854C140.702 42.9854 46.1057 137.549 46.0595 253.784C46.0437 293.616 57.1881 332.408 78.2992 365.975L83.3185 373.949L62.0091 451.741L141.825 430.814ZM1.09277 512L37.0878 380.571C14.8867 342.106 3.20584 298.47 3.22287 253.767C3.27883 113.921 117.091 0.145081 256.945 0.145081C324.812 0.174277 388.513 26.5894 436.419 74.528C484.317 122.47 510.686 186.197 510.663 253.973C510.604 393.812 396.776 507.609 256.945 507.609C256.935 507.609 256.951 507.609 256.945 507.609H256.835C214.376 507.591 172.651 496.942 135.594 476.733L1.09277 512Z" fill="white"/>
<path d="M11.8011 253.566C11.8011 297.05 23.1662 339.052 44.9081 376.112L9.82449 503.105L139.782 469.009C175.36 488.775 215.879 498.657 256.892 498.657C391.791 498.657 501.983 388.959 501.983 254.06C501.983 188.34 476.288 127.067 430.334 80.6187C383.885 34.6642 322.612 8.96912 256.892 8.96912C121.993 8.96912 11.8011 118.667 11.8011 253.566Z" fill="url(#paint0_linear_1_912)"/>
<path d="M3.04745 253.368C3.04745 298.411 14.8201 341.919 37.3418 380.308L1.00003 511.855L135.618 476.537C172.471 497.011 214.444 507.248 256.928 507.248C396.664 507.248 510.808 393.617 510.808 253.88C510.808 185.803 484.191 122.333 436.589 74.219C388.474 26.6165 325.004 0 256.928 0C117.191 0 3.04745 113.632 3.04745 253.368ZM83.4087 373.654L78.2901 365.976C57.3041 332.194 46.0433 293.293 46.0433 253.88C46.0433 137.177 140.736 42.9958 256.928 42.9958C313.232 42.9958 366.465 65.0056 405.877 104.418C445.802 144.343 467.812 197.576 467.812 253.88C467.812 370.071 373.119 464.764 256.928 464.764C219.05 464.764 181.685 454.527 149.438 435.077L141.76 430.47L61.9108 451.456L83.4087 373.654Z" fill="url(#paint1_linear_1_912)"/>
<path fill-rule="evenodd" clip-rule="evenodd" d="M193.532 147.829C188.783 137.273 183.784 137.061 179.266 136.876C175.572 136.718 171.341 136.728 167.117 136.728C162.891 136.728 156.021 138.315 150.214 144.659C144.401 151.003 128.022 166.339 128.022 197.528C128.022 228.722 150.742 258.861 153.908 263.094C157.079 267.322 197.766 333.373 262.203 358.784C315.755 379.901 326.653 375.701 338.276 374.645C349.9 373.588 375.784 359.312 381.067 344.509C386.35 329.707 386.35 317.02 384.765 314.369C383.18 311.726 378.954 310.141 372.613 306.971C366.273 303.801 335.106 288.462 329.294 286.349C323.483 284.236 319.255 283.179 315.029 289.525C310.802 295.866 298.66 310.141 294.96 314.369C291.262 318.606 287.564 319.134 281.224 315.963C274.883 312.783 254.466 306.096 230.244 284.5C211.398 267.697 198.674 246.946 194.975 240.6C191.277 234.259 194.58 230.825 197.76 227.665C200.606 224.824 204.1 220.265 207.27 216.563C210.433 212.861 211.49 210.219 213.603 205.992C215.716 201.758 214.66 198.056 213.075 194.886C211.49 191.716 199.17 160.364 193.532 147.829Z" fill="white"/>
<defs>
<linearGradient id="paint0_linear_1_912" x1="255.877" y1="503.105" x2="255.877" y2="8.96912" gradientUnits="userSpaceOnUse">
<stop stop-color="#20B038"/>
<stop offset="1" stop-color="#60D66A"/>
</linearGradient>
<linearGradient id="paint1_linear_1_912" x1="255.881" y1="511.855" x2="255.881" y2="0" gradientUnits="userSpaceOnUse">
<stop stop-color="#F9F9F9"/>
<stop offset="1" stop-color="white"/>
</linearGradient>
</defs>
</svg>
