<svg width="1024" height="1000" viewBox="0 0 1024 1000" fill="none" xmlns="http://www.w3.org/2000/svg">
<g clip-path="url(#clip0_503_201)">
<path d="M877.714 0H146.286C65.4943 0 0 66.3282 0 148.148V851.852C0 933.672 65.4943 1000 146.286 1000H877.714C958.506 1000 1024 933.672 1024 851.852V148.148C1024 66.3282 958.506 0 877.714 0Z" fill="url(#paint0_linear_503_201)"/>
<path d="M348.896 734.396L359.901 741.004C406.146 768.796 459.17 783.493 513.234 783.526H513.355C679.393 783.526 814.535 646.693 814.608 478.526C814.63 397.026 783.332 320.391 726.449 262.745C669.566 205.1 593.936 173.334 513.464 173.301C347.292 173.301 212.154 310.112 212.088 478.274C212.065 535.904 227.986 592.026 258.145 640.589L265.315 652.126L234.873 764.67L348.896 734.396ZM147.85 851.852L199.271 661.707C167.555 606.056 150.869 542.926 150.893 478.252C150.973 275.928 313.562 111.322 513.355 111.322C610.306 111.364 701.306 149.58 769.746 218.936C838.171 288.296 875.84 380.493 875.807 478.548C875.723 680.863 713.111 845.5 513.355 845.5C513.34 845.5 513.362 845.5 513.355 845.5H513.197C452.54 845.474 392.932 830.067 339.994 800.83L147.85 851.852Z" fill="white"/>
<path d="M150.64 477.674C150.64 542.841 167.458 605.785 199.632 661.326L147.715 851.641L340.026 800.544C392.672 830.167 452.634 844.978 513.325 844.978C712.95 844.978 876.011 680.582 876.011 478.415C876.011 379.922 837.987 288.097 769.986 218.488C701.25 149.619 610.579 111.111 513.325 111.111C313.702 111.111 150.64 275.509 150.64 477.674ZM265.442 651.7L258.129 640.589C228.149 591.715 212.063 535.437 212.063 478.415C212.063 309.573 347.338 173.316 513.325 173.316C593.76 173.316 669.806 205.158 726.112 262.179C783.145 319.941 814.589 396.956 814.589 478.415C814.589 646.515 679.315 783.511 513.325 783.511C459.213 783.511 405.837 768.704 359.769 740.563L348.801 733.896L234.73 764.259L265.442 651.7Z" fill="url(#paint1_linear_503_201)"/>
<path fill-rule="evenodd" clip-rule="evenodd" d="M422.759 324.984C415.975 309.713 408.837 309.406 402.382 309.138C397.104 308.91 391.059 308.924 385.025 308.924C378.987 308.924 369.175 311.22 360.878 320.398C352.574 329.576 329.175 351.764 329.175 396.885C329.175 442.018 361.632 485.622 366.154 491.744C370.685 497.863 428.808 593.422 520.862 630.185C597.366 660.737 612.934 654.659 629.538 653.133C646.145 651.604 683.122 630.948 690.667 609.533C698.215 588.118 698.215 569.763 695.951 565.926C693.688 562.104 687.65 559.811 678.591 555.226C669.532 550.637 625.01 528.448 616.705 525.389C608.403 522.333 602.365 520.804 596.327 529.985C590.289 539.159 572.943 559.811 567.659 565.926C562.374 572.059 557.093 572.822 548.035 568.233C538.976 563.633 509.81 553.959 475.206 522.715C448.282 498.404 430.106 468.381 424.822 459.2C419.541 450.03 424.259 445.059 428.801 440.489C432.868 436.378 437.86 429.781 442.387 424.426C446.904 419.07 448.414 415.248 451.435 409.133C454.452 403.007 452.945 397.652 450.678 393.063C448.414 388.478 430.816 343.12 422.759 324.984Z" fill="white"/>
</g>
<defs>
<linearGradient id="paint0_linear_503_201" x1="54.8572" y1="1037.04" x2="1132.44" y2="-357.221" gradientUnits="userSpaceOnUse">
<stop stop-color="#44C654"/>
<stop offset="1" stop-color="#01F720" stop-opacity="0.65"/>
</linearGradient>
<linearGradient id="paint1_linear_503_201" x1="511.832" y1="851.641" x2="511.832" y2="111.111" gradientUnits="userSpaceOnUse">
<stop stop-color="#F9F9F9"/>
<stop offset="1" stop-color="white"/>
</linearGradient>
<clipPath id="clip0_503_201">
<rect width="1024" height="1000" fill="white"/>
</clipPath>
</defs>
</svg>
